# xmcd
#
# Track frame offsets: 
#        300
#        12599
#        28066
#        49545
#        62183
#        78015
#        89501
#        101242
#        112286
#        125229
#
# Disc length: 1816 seconds
#
# Revision: 0
# Processed by: cddbd v1.5.2PL0 Copyright (c) Steve Scherf et al.
# Submitted via: ExactAudioCopy v1.0b1
#
DISCID=8e07140a
DTITLE=T-Bone Walker - Stormy Monday Blues
DYEAR=1998
DGENRE=Texas Blues
TTITLE0=I'm Gonna Stop This Night Life
TTITLE1=Little Girl Don't You Know
TTITLE2=Every Night I Have To Cry
TTITLE3=I'm Still In Love With You
TTITLE4=Cold-Hearted Woman
TTITLE5=Treat Me So Lowdown
TTITLE6=Stormy Monday Blues
TTITLE7=Confusion Blues
TTITLE8=I Gotta Break Baby
TTITLE9=Flower Blues
EXTD=
EXTT0=
EXTT1=
EXTT2=
EXTT3=
EXTT4=
EXTT5=
EXTT6=
EXTT7=
EXTT8=
EXTT9=
PLAYORDER=
